<svg xmlns="http://www.w3.org/2000/svg" viewBox="6 4 54 58" fill="none">
<path d="M25.505,59.319 L16.323,59.319 L16.323,45.772 C16.323,43.242 18.367,41.198 20.896,41.198 C23.426,41.198 25.470,43.242 25.470,45.772 L25.470,59.319 L25.505,59.319 Z M17.362,58.280 L24.465,58.280 L24.465,45.772 C24.465,43.797 22.871,42.237 20.931,42.237 C18.991,42.237 17.397,43.831 17.397,45.772 L17.397,58.280 L17.362,58.280 Z" fill="currentColor" fill-rule="evenodd"></path>
<path d="M29.212,39.188 L20.931,33.056 L12.650,39.188 L12.026,38.357 L20.931,31.774 L29.836,38.357 L29.212,39.188 Z" fill="currentColor" fill-rule="evenodd"></path>
<path d="M28.796,38.357 L28.796,39.396 L28.796,58.280 L13.031,58.280 L13.031,39.396 L13.066,39.396 L13.066,38.357 L11.992,38.357 L11.992,59.319 L29.836,59.319 L29.836,38.357 L28.796,38.357 Z" fill="currentColor" fill-rule="evenodd"></path>
<path d="M28.103,26.507 L20.966,21.241 L13.828,26.507 L13.724,26.576 L13.724,27.581 L13.724,27.858 L13.724,37.317 L14.764,37.317 L14.764,27.304 L14.798,27.304 L14.798,27.096 L20.966,22.523 L27.064,27.061 L27.064,27.304 L27.064,37.317 L28.103,37.317 L28.103,27.824 L28.103,27.547 L28.103,26.542 L28.103,26.507 Z" fill="currentColor" fill-rule="evenodd"></path>
<path d="M21.451,13.860 L20.411,13.860 L20.411,22.003 L21.451,22.003 L21.451,13.860 Z" fill="currentColor" fill-rule="evenodd"></path>
<path d="M22.629,16.043 L19.233,16.043 L19.233,17.083 L22.629,17.083 L22.629,16.043 Z" fill="currentColor" fill-rule="evenodd"></path>
<path d="M46.467,32.051 C43.175,32.051 40.507,29.383 40.507,26.091 L40.507,17.533 L41.547,17.533 L41.547,26.091 C41.547,28.794 43.764,31.011 46.467,31.011 C49.169,31.011 51.387,28.794 51.387,26.091 L51.387,17.533 L52.426,17.533 L52.426,26.091 C52.392,29.383 49.724,32.051 46.467,32.051 Z" fill="currentColor" fill-rule="evenodd"></path>
<path d="M34.271,58.280 L34.271,59.319 L37.770,59.319 C37.978,58.973 38.186,58.626 38.394,58.280 L34.271,58.280 Z" fill="currentColor" fill-rule="evenodd"></path>
<path d="M44.596,59.042 C44.526,59.146 44.457,59.215 44.388,59.319 L44.873,59.319 C44.769,59.215 44.665,59.111 44.596,59.042 Z" fill="currentColor" fill-rule="evenodd"></path>
<path d="M58.767,8.039 L58.767,38.426 C59.287,38.357 59.564,38.357 59.633,38.357 L59.668,39.396 C59.633,39.396 59.321,39.396 58.802,39.466 L58.802,42.722 C59.183,42.619 59.529,42.549 59.841,42.480 L59.841,7.000 L34.271,7.000 L34.271,8.039 L58.767,8.039 Z" fill="currentColor" fill-rule="evenodd"></path>
<path d="M45.289,58.280 C45.635,58.626 45.982,58.973 46.293,59.319 L50.936,59.319 C50.659,58.973 50.382,58.626 50.105,58.280 L45.289,58.280 Z" fill="currentColor" fill-rule="evenodd"></path>
<path d="M7.557,7.000 L7.487,7.000 L7.487,59.319 L7.557,59.319 L7.557,7.000 Z" fill="currentColor" fill-rule="evenodd"></path>
<path d="M43.764,58.280 L39.607,58.280 C39.399,58.626 39.156,58.973 38.948,59.319 L43.037,59.319 C43.279,58.973 43.556,58.661 43.799,58.314 C43.799,58.314 43.799,58.280 43.764,58.280 Z" fill="currentColor" fill-rule="evenodd"></path>
<path d="M51.456,58.280 C51.733,58.626 51.976,58.973 52.218,59.319 L56.238,59.319 C56.030,58.973 55.822,58.626 55.614,58.280 L51.456,58.280 Z" fill="currentColor" fill-rule="evenodd"></path>
<path d="M59.806,48.128 C59.460,48.232 59.113,48.370 58.767,48.474 L58.767,58.280 L56.827,58.280 C57.035,58.626 57.242,58.973 57.450,59.319 L59.806,59.319 L59.806,48.128 L59.806,48.128 Z" fill="currentColor" fill-rule="evenodd"></path>
<path d="M58.767,47.365 C59.114,47.227 59.460,47.123 59.807,47.019 L59.807,43.589 C59.495,43.658 59.148,43.727 58.767,43.831 L58.767,47.365 Z" fill="currentColor" fill-rule="evenodd"></path>
<path d="M34.270,43.034 C33.855,42.965 33.508,42.930 33.231,42.896 L33.231,46.118 C33.543,46.187 33.889,46.291 34.270,46.361 L34.270,43.034 Z" fill="currentColor" fill-rule="evenodd"></path>
<path d="M34.270,41.995 L34.270,8.039 L33.231,8.039 L33.231,41.856 C33.508,41.891 33.855,41.926 34.270,41.995 Z" fill="currentColor" fill-rule="evenodd"></path>
<path d="M33.889,57.517 C34.028,57.275 34.132,57.032 34.270,56.824 L34.270,52.251 C33.924,52.112 33.577,51.974 33.231,51.870 L33.231,58.280 L34.270,58.280 L34.270,57.725 L33.889,57.517 Z" fill="currentColor" fill-rule="evenodd"></path>
<path d="M34.270,47.469 C33.889,47.365 33.543,47.261 33.231,47.192 L33.231,50.692 C33.577,50.796 33.924,50.934 34.270,51.073 L34.270,47.469 Z" fill="currentColor" fill-rule="evenodd"></path>
<path d="M8.596,8.039 L8.527,8.039 L8.527,58.280 L8.596,58.280 L8.596,8.039 Z" fill="currentColor" fill-rule="evenodd"></path>
<path d="M33.231,58.280 L8.631,58.280 L8.527,58.280 L8.527,8.039 L8.631,8.039 L33.231,8.039 L34.271,8.039 L34.271,7.000 L7.591,7.000 L7.591,59.319 L34.271,59.319 L34.271,58.280 L33.231,58.280 Z" fill="currentColor" fill-rule="evenodd"></path>
<path d="M47.090,31.150 L46.051,31.150 L46.051,43.554 C46.051,43.554 46.778,43.762 47.090,43.554 L47.090,31.150 Z" fill="currentColor" fill-rule="evenodd"></path>
<path d="M55.614,58.280 C55.822,58.626 56.030,58.973 56.237,59.319 L57.450,59.319 C57.242,58.973 57.034,58.626 56.826,58.280 L55.614,58.280 Z" fill="currentColor" fill-rule="evenodd"></path>
<path d="M34.270,41.995 C33.855,41.926 33.508,41.891 33.231,41.856 L33.231,42.896 C33.508,42.930 33.855,42.965 34.270,43.034 L34.270,41.995 Z" fill="currentColor" fill-rule="evenodd"></path>
<path d="M50.140,58.280 C50.417,58.626 50.694,58.973 50.971,59.319 L52.253,59.319 C52.011,58.973 51.733,58.626 51.491,58.280 L50.140,58.280 Z" fill="currentColor" fill-rule="evenodd"></path>
<path d="M34.270,46.395 C33.889,46.291 33.543,46.222 33.231,46.153 L33.231,47.227 C33.543,47.296 33.889,47.400 34.270,47.504 L34.270,46.395 Z" fill="currentColor" fill-rule="evenodd"></path>
<path d="M48.199,42.030 L48.199,43.277 C52.911,40.470 57.035,39.708 58.767,39.466 L58.767,38.426 C57.312,38.599 54.193,39.119 50.382,40.886 C49.724,41.233 48.961,41.579 48.199,42.030 Z" fill="currentColor" fill-rule="evenodd"></path>
<path d="M59.668,39.396 L59.633,38.357 C59.599,38.357 59.287,38.357 58.767,38.426 L58.767,39.466 C59.321,39.396 59.633,39.396 59.668,39.396 Z" fill="currentColor" fill-rule="evenodd"></path>
<path d="M33.889,57.517 L34.270,57.725 L34.270,56.824 C34.132,57.032 34.028,57.275 33.889,57.517 Z" fill="currentColor" fill-rule="evenodd"></path>
<path d="M45.774,43.554 C45.462,43.762 45.150,44.004 44.838,44.212 L45.774,44.212 L45.774,43.554 Z" fill="currentColor" fill-rule="evenodd"></path>
<path d="M48.199,43.277 L48.199,42.030 C47.853,42.237 47.506,42.445 47.160,42.653 L47.160,43.901 C47.541,43.693 47.887,43.485 48.199,43.277 Z" fill="currentColor" fill-rule="evenodd"></path>
<path d="M38.394,58.280 C38.186,58.626 37.978,58.973 37.770,59.319 L38.983,59.319 C39.191,58.973 39.399,58.626 39.641,58.280 L38.394,58.280 Z" fill="currentColor" fill-rule="evenodd"></path>
<path d="M58.767,43.831 C59.148,43.727 59.495,43.658 59.807,43.589 L59.807,42.515 C59.495,42.584 59.148,42.653 58.767,42.757 L58.767,43.831 Z" fill="currentColor" fill-rule="evenodd"></path>
<path d="M43.834,58.314 C43.591,58.626 43.314,58.973 43.071,59.319 L44.388,59.319 C44.457,59.215 44.527,59.146 44.596,59.042 C44.319,58.799 44.076,58.557 43.834,58.314 Z" fill="currentColor" fill-rule="evenodd"></path>
<path d="M58.767,48.474 C59.114,48.336 59.460,48.232 59.807,48.128 L59.807,47.019 C59.460,47.123 59.114,47.227 58.767,47.365 L58.767,48.474 Z" fill="currentColor" fill-rule="evenodd"></path>
<path d="M45.185,58.280 L45.289,58.280 L45.254,58.245 C45.220,58.245 45.220,58.245 45.185,58.280 Z" fill="currentColor" fill-rule="evenodd"></path>
<path d="M45.289,58.280 L45.185,58.280 C44.977,58.522 44.769,58.765 44.561,59.042 C44.665,59.146 44.734,59.215 44.838,59.319 L46.293,59.319 C45.982,58.938 45.635,58.591 45.289,58.280 Z" fill="currentColor" fill-rule="evenodd"></path>
<path d="M43.764,58.280 L43.799,58.315 L43.834,58.280 L43.764,58.280 Z" fill="currentColor" fill-rule="evenodd"></path>
<path d="M33.231,50.726 L33.231,51.835 C33.577,51.939 33.924,52.078 34.270,52.216 L34.270,51.073 C33.924,50.969 33.577,50.830 33.231,50.726 Z" fill="currentColor" fill-rule="evenodd"></path>
<path d="M58.767,42.723 C57.242,43.104 55.302,43.693 53.154,44.697 C51.525,45.460 49.689,46.499 47.749,47.954 C46.675,47.123 45.601,46.395 44.561,45.806 C45.427,45.113 46.293,44.490 47.160,43.935 L47.160,42.688 C46.709,42.965 46.259,43.277 45.774,43.589 L45.774,44.247 L44.838,44.247 C44.422,44.559 44.007,44.905 43.591,45.252 C43.002,44.940 42.413,44.628 41.858,44.386 C38.636,42.861 35.899,42.272 34.236,42.030 L34.236,43.104 C36.038,43.381 39.156,44.143 42.690,46.049 C43.002,46.222 43.348,46.395 43.660,46.603 C44.700,47.192 45.774,47.885 46.848,48.717 C47.125,48.925 47.402,49.167 47.714,49.375 C48.650,50.103 49.550,50.934 50.486,51.870 C50.728,52.112 50.971,52.389 51.214,52.632 C52.738,54.260 54.193,56.131 55.614,58.349 L56.827,58.349 C55.337,55.889 53.708,53.775 52.080,52.008 C54.471,50.380 56.757,49.271 58.767,48.543 L58.767,47.400 C57.866,47.712 56.931,48.093 55.926,48.578 C54.540,49.236 52.981,50.103 51.352,51.246 C50.417,50.311 49.516,49.479 48.615,48.717 C52.496,45.910 56.203,44.559 58.802,43.901 L58.802,42.723 L58.767,42.723 Z" fill="currentColor" fill-rule="evenodd"></path>
<path d="M47.714,54.122 C46.779,53.221 45.843,52.459 44.942,51.766 C44.665,51.558 44.388,51.350 44.111,51.142 C43.037,50.380 41.997,49.722 41.027,49.167 C40.715,48.994 40.403,48.821 40.091,48.647 C39.780,48.474 39.468,48.336 39.156,48.197 C37.354,47.365 35.726,46.776 34.305,46.430 L34.305,47.539 C35.760,47.954 37.493,48.578 39.364,49.514 C39.676,49.687 39.988,49.825 40.299,49.999 C41.304,50.553 42.344,51.177 43.383,51.939 C43.660,52.147 43.937,52.355 44.249,52.563 C45.150,53.256 46.086,54.018 47.021,54.919 C47.264,55.161 47.506,55.404 47.783,55.646 C48.615,56.478 49.412,57.379 50.209,58.349 L51.525,58.349 C50.555,57.067 49.550,55.958 48.511,54.919 C48.199,54.607 47.957,54.364 47.714,54.122 Z" fill="currentColor" fill-rule="evenodd"></path>
<path d="M41.789,55.265 C41.512,55.057 41.235,54.849 40.958,54.642 C39.918,53.914 38.948,53.325 38.013,52.805 C37.701,52.632 37.389,52.459 37.077,52.320 C36.834,52.182 36.592,52.078 36.349,51.974 C35.622,51.627 34.963,51.350 34.271,51.107 L34.271,52.251 C34.963,52.528 35.691,52.840 36.453,53.221 C36.765,53.360 37.077,53.533 37.389,53.706 C38.324,54.226 39.329,54.815 40.299,55.508 C40.577,55.716 40.854,55.889 41.131,56.097 C41.997,56.755 42.898,57.483 43.764,58.280 L43.833,58.280 L45.185,58.280 L45.219,58.245 C44.977,58.002 44.700,57.760 44.457,57.517 C43.591,56.686 42.655,55.924 41.789,55.265 Z" fill="currentColor" fill-rule="evenodd"></path>
<path d="M43.833,58.314 C44.076,58.557 44.353,58.799 44.596,59.042 C44.804,58.799 45.012,58.522 45.219,58.280 L43.868,58.280 C43.833,58.280 43.833,58.314 43.833,58.314 Z" fill="currentColor" fill-rule="evenodd"></path>
<path d="M51.768,20.582 L41.027,20.582 L41.027,21.622 L51.768,21.622 L51.768,20.582 Z" fill="currentColor" fill-rule="evenodd"></path>
</svg>