<svg xmlns="http://www.w3.org/2000/svg" viewBox="6 66 54 12" fill="none">
<path d="M10.536,76.851 C9.601,76.851 8.804,76.643 8.146,76.227 C7.487,75.812 7.037,75.223 6.760,74.495 L8.388,73.560 C8.769,74.530 9.497,75.015 10.606,75.015 C11.125,75.015 11.541,74.911 11.784,74.738 C12.026,74.564 12.165,74.287 12.165,74.010 C12.165,73.664 12.026,73.421 11.714,73.213 C11.403,73.040 10.883,72.832 10.086,72.589 C9.670,72.451 9.289,72.347 9.012,72.208 C8.700,72.070 8.423,71.896 8.111,71.689 C7.799,71.481 7.591,71.203 7.418,70.857 C7.279,70.545 7.176,70.129 7.176,69.714 C7.176,68.847 7.487,68.154 8.111,67.635 C8.735,67.115 9.462,66.872 10.329,66.872 C11.091,66.872 11.784,67.046 12.373,67.427 C12.962,67.808 13.412,68.328 13.759,69.021 L12.165,69.956 C11.784,69.125 11.160,68.709 10.329,68.709 C9.947,68.709 9.636,68.813 9.393,68.986 C9.185,69.159 9.047,69.402 9.047,69.679 C9.047,69.991 9.185,70.233 9.428,70.407 C9.670,70.580 10.155,70.788 10.883,71.030 C11.160,71.134 11.403,71.203 11.541,71.238 C11.680,71.273 11.888,71.377 12.165,71.481 C12.442,71.585 12.615,71.689 12.754,71.792 C12.893,71.896 13.066,72.000 13.239,72.174 C13.412,72.347 13.551,72.485 13.655,72.659 C13.759,72.832 13.828,73.005 13.897,73.248 C13.967,73.490 14.001,73.733 14.001,74.010 C14.001,74.911 13.689,75.604 13.031,76.124 C12.373,76.643 11.576,76.851 10.536,76.851 Z" fill="currentColor" fill-rule="evenodd"></path>
<path d="M21.277,76.643 L20.688,74.911 L16.877,74.911 L16.288,76.643 L14.244,76.643 L17.605,67.046 L19.961,67.046 L23.322,76.643 L21.277,76.643 Z M17.466,73.144 L20.099,73.144 L18.783,69.229 L17.466,73.144 Z" fill="currentColor" fill-rule="evenodd"></path>
<path d="M28.450,76.851 C26.995,76.851 25.817,76.366 24.881,75.396 C23.946,74.426 23.460,73.248 23.460,71.862 C23.460,70.441 23.946,69.263 24.881,68.293 C25.817,67.323 27.029,66.872 28.450,66.872 C29.316,66.872 30.113,67.080 30.841,67.496 C31.568,67.912 32.157,68.466 32.573,69.159 L30.944,70.095 C30.702,69.679 30.355,69.332 29.940,69.090 C29.489,68.847 29.004,68.743 28.450,68.743 C27.514,68.743 26.752,69.021 26.198,69.610 C25.643,70.199 25.331,70.961 25.331,71.896 C25.331,72.832 25.609,73.560 26.198,74.149 C26.752,74.738 27.514,75.015 28.450,75.015 C29.004,75.015 29.489,74.911 29.940,74.668 C30.390,74.426 30.702,74.079 30.944,73.664 L32.573,74.599 C32.157,75.292 31.603,75.846 30.875,76.262 C30.148,76.643 29.316,76.851 28.450,76.851 Z" fill="currentColor" fill-rule="evenodd"></path>
<path d="M39.018,76.643 L37.077,73.317 L35.622,73.317 L35.622,76.643 L33.716,76.643 L33.716,67.046 L37.597,67.046 C38.498,67.046 39.225,67.358 39.849,67.981 C40.473,68.605 40.785,69.367 40.785,70.233 C40.785,70.822 40.611,71.377 40.265,71.896 C39.918,72.416 39.468,72.797 38.914,73.040 L41.027,76.643 L39.018,76.643 L39.018,76.643 Z M35.622,68.813 L35.622,71.654 L37.562,71.654 C37.909,71.654 38.221,71.515 38.498,71.238 C38.740,70.961 38.879,70.614 38.879,70.233 C38.879,69.852 38.740,69.506 38.498,69.229 C38.255,68.951 37.943,68.813 37.562,68.813 L35.622,68.813 Z" fill="currentColor" fill-rule="evenodd"></path>
<path d="M50.140,75.396 C49.170,76.366 47.992,76.851 46.606,76.851 C45.220,76.851 44.042,76.366 43.071,75.396 C42.101,74.426 41.616,73.248 41.616,71.862 C41.616,70.476 42.101,69.298 43.071,68.328 C44.042,67.357 45.220,66.872 46.606,66.872 C47.992,66.872 49.170,67.357 50.140,68.328 C51.110,69.298 51.595,70.476 51.595,71.862 C51.560,73.248 51.075,74.426 50.140,75.396 Z M44.388,74.114 C44.977,74.703 45.705,75.015 46.606,75.015 C47.506,75.015 48.234,74.738 48.823,74.114 C49.412,73.525 49.724,72.763 49.724,71.862 C49.724,70.961 49.412,70.199 48.823,69.610 C48.234,69.021 47.506,68.709 46.606,68.709 C45.705,68.709 44.977,69.021 44.388,69.610 C43.799,70.199 43.487,70.961 43.487,71.862 C43.487,72.763 43.799,73.525 44.388,74.114 Z" fill="currentColor" fill-rule="evenodd"></path>
<path d="M55.822,76.851 C54.887,76.851 54.090,76.643 53.431,76.227 C52.773,75.812 52.323,75.223 52.045,74.495 L53.674,73.560 C54.055,74.530 54.783,75.015 55.891,75.015 C56.411,75.015 56.827,74.911 57.069,74.738 C57.312,74.564 57.451,74.287 57.451,74.010 C57.451,73.664 57.312,73.421 57.000,73.213 C56.688,73.040 56.169,72.832 55.372,72.589 C54.956,72.451 54.575,72.347 54.298,72.208 C53.986,72.070 53.709,71.896 53.397,71.689 C53.085,71.481 52.877,71.203 52.704,70.857 C52.565,70.545 52.461,70.129 52.461,69.714 C52.461,68.847 52.773,68.154 53.397,67.635 C54.020,67.115 54.748,66.872 55.614,66.872 C56.376,66.872 57.069,67.046 57.658,67.427 C58.247,67.808 58.698,68.328 59.044,69.021 L57.451,69.956 C57.069,69.125 56.446,68.709 55.614,68.709 C55.233,68.709 54.921,68.813 54.679,68.986 C54.471,69.159 54.332,69.402 54.332,69.679 C54.332,69.991 54.471,70.233 54.713,70.407 C54.956,70.580 55.441,70.788 56.169,71.030 C56.446,71.134 56.688,71.203 56.827,71.238 C56.965,71.273 57.173,71.377 57.451,71.481 C57.728,71.585 57.901,71.689 58.040,71.792 C58.178,71.896 58.351,72.000 58.525,72.174 C58.698,72.347 58.836,72.485 58.940,72.659 C59.044,72.832 59.114,73.005 59.183,73.248 C59.252,73.490 59.287,73.733 59.287,74.010 C59.287,74.911 58.975,75.604 58.317,76.124 C57.658,76.643 56.862,76.851 55.822,76.851 Z" fill="currentColor" fill-rule="evenodd"></path>
</svg>