<svg xmlns="http://www.w3.org/2000/svg" viewBox="0 0 67 86">
<rect width="67" height="86" fill="#0A0A0A"></rect>
<path d="M25.505,59.319 L16.323,59.319 L16.323,45.772 C16.323,43.242 18.367,41.198 20.896,41.198 C23.426,41.198 25.470,43.242 25.470,45.772 L25.470,59.319 L25.505,59.319 Z M17.362,58.280 L24.465,58.280 L24.465,45.772 C24.465,43.797 22.871,42.237 20.931,42.237 C18.991,42.237 17.397,43.831 17.397,45.772 L17.397,58.280 L17.362,58.280 Z" fill="#FF4848" fill-rule="evenodd"></path>
<path d="M29.212,39.188 L20.931,33.056 L12.650,39.188 L12.026,38.357 L20.931,31.774 L29.836,38.357 L29.212,39.188 Z" fill="#FF4848" fill-rule="evenodd"></path>
<path d="M28.796,38.357 L28.796,39.396 L28.796,58.280 L13.031,58.280 L13.031,39.396 L13.066,39.396 L13.066,38.357 L11.992,38.357 L11.992,59.319 L29.836,59.319 L29.836,38.357 L28.796,38.357 Z" fill="#FF4848" fill-rule="evenodd"></path>
<path d="M28.103,26.507 L20.966,21.241 L13.828,26.507 L13.724,26.576 L13.724,27.581 L13.724,27.858 L13.724,37.317 L14.764,37.317 L14.764,27.304 L14.798,27.304 L14.798,27.096 L20.966,22.523 L27.064,27.061 L27.064,27.304 L27.064,37.317 L28.103,37.317 L28.103,27.824 L28.103,27.547 L28.103,26.542 L28.103,26.507 Z" fill="#FF4848" fill-rule="evenodd"></path>
<path d="M21.451,13.860 L20.411,13.860 L20.411,22.003 L21.451,22.003 L21.451,13.860 Z" fill="#FF4848" fill-rule="evenodd"></path>
<path d="M22.629,16.043 L19.233,16.043 L19.233,17.083 L22.629,17.083 L22.629,16.043 Z" fill="#FF4848" fill-rule="evenodd"></path>
<path d="M46.467,32.051 C43.175,32.051 40.507,29.383 40.507,26.091 L40.507,17.533 L41.547,17.533 L41.547,26.091 C41.547,28.794 43.764,31.011 46.467,31.011 C49.169,31.011 51.387,28.794 51.387,26.091 L51.387,17.533 L52.426,17.533 L52.426,26.091 C52.392,29.383 49.724,32.051 46.467,32.051 Z" fill="#FF4848" fill-rule="evenodd"></path>
<path d="M34.271,58.280 L34.271,59.319 L37.770,59.319 C37.978,58.973 38.186,58.626 38.394,58.280 L34.271,58.280 Z" fill="#FF4848" fill-rule="evenodd"></path>
<path d="M44.596,59.042 C44.526,59.146 44.457,59.215 44.388,59.319 L44.873,59.319 C44.769,59.215 44.665,59.111 44.596,59.042 Z" fill="#FF4848" fill-rule="evenodd"></path>
<path d="M58.767,8.039 L58.767,38.426 C59.287,38.357 59.564,38.357 59.633,38.357 L59.668,39.396 C59.633,39.396 59.321,39.396 58.802,39.466 L58.802,42.722 C59.183,42.619 59.529,42.549 59.841,42.480 L59.841,7.000 L34.271,7.000 L34.271,8.039 L58.767,8.039 Z" fill="#FF4848" fill-rule="evenodd"></path>
<path d="M45.289,58.280 C45.635,58.626 45.982,58.973 46.293,59.319 L50.936,59.319 C50.659,58.973 50.382,58.626 50.105,58.280 L45.289,58.280 Z" fill="#FF4848" fill-rule="evenodd"></path>
<path d="M7.557,7.000 L7.487,7.000 L7.487,59.319 L7.557,59.319 L7.557,7.000 Z" fill="#FF4848" fill-rule="evenodd"></path>
<path d="M43.764,58.280 L39.607,58.280 C39.399,58.626 39.156,58.973 38.948,59.319 L43.037,59.319 C43.279,58.973 43.556,58.661 43.799,58.314 C43.799,58.314 43.799,58.280 43.764,58.280 Z" fill="#FF4848" fill-rule="evenodd"></path>
<path d="M51.456,58.280 C51.733,58.626 51.976,58.973 52.218,59.319 L56.238,59.319 C56.030,58.973 55.822,58.626 55.614,58.280 L51.456,58.280 Z" fill="#FF4848" fill-rule="evenodd"></path>
<path d="M59.806,48.128 C59.460,48.232 59.113,48.370 58.767,48.474 L58.767,58.280 L56.827,58.280 C57.035,58.626 57.242,58.973 57.450,59.319 L59.806,59.319 L59.806,48.128 L59.806,48.128 Z" fill="#FF4848" fill-rule="evenodd"></path>
<path d="M58.767,47.365 C59.114,47.227 59.460,47.123 59.807,47.019 L59.807,43.589 C59.495,43.658 59.148,43.727 58.767,43.831 L58.767,47.365 Z" fill="#FF4848" fill-rule="evenodd"></path>
<path d="M34.270,43.034 C33.855,42.965 33.508,42.930 33.231,42.896 L33.231,46.118 C33.543,46.187 33.889,46.291 34.270,46.361 L34.270,43.034 Z" fill="#FF4848" fill-rule="evenodd"></path>
<path d="M34.270,41.995 L34.270,8.039 L33.231,8.039 L33.231,41.856 C33.508,41.891 33.855,41.926 34.270,41.995 Z" fill="#FF4848" fill-rule="evenodd"></path>
<path d="M33.889,57.517 C34.028,57.275 34.132,57.032 34.270,56.824 L34.270,52.251 C33.924,52.112 33.577,51.974 33.231,51.870 L33.231,58.280 L34.270,58.280 L34.270,57.725 L33.889,57.517 Z" fill="#FF4848" fill-rule="evenodd"></path>
<path d="M34.270,47.469 C33.889,47.365 33.543,47.261 33.231,47.192 L33.231,50.692 C33.577,50.796 33.924,50.934 34.270,51.073 L34.270,47.469 Z" fill="#FF4848" fill-rule="evenodd"></path>
<path d="M8.596,8.039 L8.527,8.039 L8.527,58.280 L8.596,58.280 L8.596,8.039 Z" fill="#FF4848" fill-rule="evenodd"></path>
<path d="M33.231,58.280 L8.631,58.280 L8.527,58.280 L8.527,8.039 L8.631,8.039 L33.231,8.039 L34.271,8.039 L34.271,7.000 L7.591,7.000 L7.591,59.319 L34.271,59.319 L34.271,58.280 L33.231,58.280 Z" fill="#FF4848" fill-rule="evenodd"></path>
<path d="M47.090,31.150 L46.051,31.150 L46.051,43.554 C46.051,43.554 46.778,43.762 47.090,43.554 L47.090,31.150 Z" fill="#FF4848" fill-rule="evenodd"></path>
<path d="M55.614,58.280 C55.822,58.626 56.030,58.973 56.237,59.319 L57.450,59.319 C57.242,58.973 57.034,58.626 56.826,58.280 L55.614,58.280 Z" fill="#FF4848" fill-rule="evenodd"></path>
<path d="M34.270,41.995 C33.855,41.926 33.508,41.891 33.231,41.856 L33.231,42.896 C33.508,42.930 33.855,42.965 34.270,43.034 L34.270,41.995 Z" fill="#FF4848" fill-rule="evenodd"></path>
<path d="M50.140,58.280 C50.417,58.626 50.694,58.973 50.971,59.319 L52.253,59.319 C52.011,58.973 51.733,58.626 51.491,58.280 L50.140,58.280 Z" fill="#FF4848" fill-rule="evenodd"></path>
<path d="M34.270,46.395 C33.889,46.291 33.543,46.222 33.231,46.153 L33.231,47.227 C33.543,47.296 33.889,47.400 34.270,47.504 L34.270,46.395 Z" fill="#FF4848" fill-rule="evenodd"></path>
<path d="M48.199,42.030 L48.199,43.277 C52.911,40.470 57.035,39.708 58.767,39.466 L58.767,38.426 C57.312,38.599 54.193,39.119 50.382,40.886 C49.724,41.233 48.961,41.579 48.199,42.030 Z" fill="#FF4848" fill-rule="evenodd"></path>
<path d="M59.668,39.396 L59.633,38.357 C59.599,38.357 59.287,38.357 58.767,38.426 L58.767,39.466 C59.321,39.396 59.633,39.396 59.668,39.396 Z" fill="#FF4848" fill-rule="evenodd"></path>
<path d="M33.889,57.517 L34.270,57.725 L34.270,56.824 C34.132,57.032 34.028,57.275 33.889,57.517 Z" fill="#FF4848" fill-rule="evenodd"></path>
<path d="M45.774,43.554 C45.462,43.762 45.150,44.004 44.838,44.212 L45.774,44.212 L45.774,43.554 Z" fill="#FF4848" fill-rule="evenodd"></path>
<path d="M48.199,43.277 L48.199,42.030 C47.853,42.237 47.506,42.445 47.160,42.653 L47.160,43.901 C47.541,43.693 47.887,43.485 48.199,43.277 Z" fill="#FF4848" fill-rule="evenodd"></path>
<path d="M38.394,58.280 C38.186,58.626 37.978,58.973 37.770,59.319 L38.983,59.319 C39.191,58.973 39.399,58.626 39.641,58.280 L38.394,58.280 Z" fill="#FF4848" fill-rule="evenodd"></path>
<path d="M58.767,43.831 C59.148,43.727 59.495,43.658 59.807,43.589 L59.807,42.515 C59.495,42.584 59.148,42.653 58.767,42.757 L58.767,43.831 Z" fill="#FF4848" fill-rule="evenodd"></path>
<path d="M43.834,58.314 C43.591,58.626 43.314,58.973 43.071,59.319 L44.388,59.319 C44.457,59.215 44.527,59.146 44.596,59.042 C44.319,58.799 44.076,58.557 43.834,58.314 Z" fill="#FF4848" fill-rule="evenodd"></path>
<path d="M58.767,48.474 C59.114,48.336 59.460,48.232 59.807,48.128 L59.807,47.019 C59.460,47.123 59.114,47.227 58.767,47.365 L58.767,48.474 Z" fill="#FF4848" fill-rule="evenodd"></path>
<path d="M45.185,58.280 L45.289,58.280 L45.254,58.245 C45.220,58.245 45.220,58.245 45.185,58.280 Z" fill="#FF4848" fill-rule="evenodd"></path>
<path d="M45.289,58.280 L45.185,58.280 C44.977,58.522 44.769,58.765 44.561,59.042 C44.665,59.146 44.734,59.215 44.838,59.319 L46.293,59.319 C45.982,58.938 45.635,58.591 45.289,58.280 Z" fill="#FF4848" fill-rule="evenodd"></path>
<path d="M43.764,58.280 L43.799,58.315 L43.834,58.280 L43.764,58.280 Z" fill="#FF4848" fill-rule="evenodd"></path>
<path d="M33.231,50.726 L33.231,51.835 C33.577,51.939 33.924,52.078 34.270,52.216 L34.270,51.073 C33.924,50.969 33.577,50.830 33.231,50.726 Z" fill="#FF4848" fill-rule="evenodd"></path>
<path d="M58.767,42.723 C57.242,43.104 55.302,43.693 53.154,44.697 C51.525,45.460 49.689,46.499 47.749,47.954 C46.675,47.123 45.601,46.395 44.561,45.806 C45.427,45.113 46.293,44.490 47.160,43.935 L47.160,42.688 C46.709,42.965 46.259,43.277 45.774,43.589 L45.774,44.247 L44.838,44.247 C44.422,44.559 44.007,44.905 43.591,45.252 C43.002,44.940 42.413,44.628 41.858,44.386 C38.636,42.861 35.899,42.272 34.236,42.030 L34.236,43.104 C36.038,43.381 39.156,44.143 42.690,46.049 C43.002,46.222 43.348,46.395 43.660,46.603 C44.700,47.192 45.774,47.885 46.848,48.717 C47.125,48.925 47.402,49.167 47.714,49.375 C48.650,50.103 49.550,50.934 50.486,51.870 C50.728,52.112 50.971,52.389 51.214,52.632 C52.738,54.260 54.193,56.131 55.614,58.349 L56.827,58.349 C55.337,55.889 53.708,53.775 52.080,52.008 C54.471,50.380 56.757,49.271 58.767,48.543 L58.767,47.400 C57.866,47.712 56.931,48.093 55.926,48.578 C54.540,49.236 52.981,50.103 51.352,51.246 C50.417,50.311 49.516,49.479 48.615,48.717 C52.496,45.910 56.203,44.559 58.802,43.901 L58.802,42.723 L58.767,42.723 Z" fill="#FF4848" fill-rule="evenodd"></path>
<path d="M47.714,54.122 C46.779,53.221 45.843,52.459 44.942,51.766 C44.665,51.558 44.388,51.350 44.111,51.142 C43.037,50.380 41.997,49.722 41.027,49.167 C40.715,48.994 40.403,48.821 40.091,48.647 C39.780,48.474 39.468,48.336 39.156,48.197 C37.354,47.365 35.726,46.776 34.305,46.430 L34.305,47.539 C35.760,47.954 37.493,48.578 39.364,49.514 C39.676,49.687 39.988,49.825 40.299,49.999 C41.304,50.553 42.344,51.177 43.383,51.939 C43.660,52.147 43.937,52.355 44.249,52.563 C45.150,53.256 46.086,54.018 47.021,54.919 C47.264,55.161 47.506,55.404 47.783,55.646 C48.615,56.478 49.412,57.379 50.209,58.349 L51.525,58.349 C50.555,57.067 49.550,55.958 48.511,54.919 C48.199,54.607 47.957,54.364 47.714,54.122 Z" fill="#FF4848" fill-rule="evenodd"></path>
<path d="M41.789,55.265 C41.512,55.057 41.235,54.849 40.958,54.642 C39.918,53.914 38.948,53.325 38.013,52.805 C37.701,52.632 37.389,52.459 37.077,52.320 C36.834,52.182 36.592,52.078 36.349,51.974 C35.622,51.627 34.963,51.350 34.271,51.107 L34.271,52.251 C34.963,52.528 35.691,52.840 36.453,53.221 C36.765,53.360 37.077,53.533 37.389,53.706 C38.324,54.226 39.329,54.815 40.299,55.508 C40.577,55.716 40.854,55.889 41.131,56.097 C41.997,56.755 42.898,57.483 43.764,58.280 L43.833,58.280 L45.185,58.280 L45.219,58.245 C44.977,58.002 44.700,57.760 44.457,57.517 C43.591,56.686 42.655,55.924 41.789,55.265 Z" fill="#FF4848" fill-rule="evenodd"></path>
<path d="M43.833,58.314 C44.076,58.557 44.353,58.799 44.596,59.042 C44.804,58.799 45.012,58.522 45.219,58.280 L43.868,58.280 C43.833,58.280 43.833,58.314 43.833,58.314 Z" fill="#FF4848" fill-rule="evenodd"></path>
<path d="M51.768,20.582 L41.027,20.582 L41.027,21.622 L51.768,21.622 L51.768,20.582 Z" fill="#FF4848" fill-rule="evenodd"></path>
<path d="M10.536,76.851 C9.601,76.851 8.804,76.643 8.146,76.227 C7.487,75.812 7.037,75.223 6.760,74.495 L8.388,73.560 C8.769,74.530 9.497,75.015 10.606,75.015 C11.125,75.015 11.541,74.911 11.784,74.738 C12.026,74.564 12.165,74.287 12.165,74.010 C12.165,73.664 12.026,73.421 11.714,73.213 C11.403,73.040 10.883,72.832 10.086,72.589 C9.670,72.451 9.289,72.347 9.012,72.208 C8.700,72.070 8.423,71.896 8.111,71.689 C7.799,71.481 7.591,71.203 7.418,70.857 C7.279,70.545 7.176,70.129 7.176,69.714 C7.176,68.847 7.487,68.154 8.111,67.635 C8.735,67.115 9.462,66.872 10.329,66.872 C11.091,66.872 11.784,67.046 12.373,67.427 C12.962,67.808 13.412,68.328 13.759,69.021 L12.165,69.956 C11.784,69.125 11.160,68.709 10.329,68.709 C9.947,68.709 9.636,68.813 9.393,68.986 C9.185,69.159 9.047,69.402 9.047,69.679 C9.047,69.991 9.185,70.233 9.428,70.407 C9.670,70.580 10.155,70.788 10.883,71.030 C11.160,71.134 11.403,71.203 11.541,71.238 C11.680,71.273 11.888,71.377 12.165,71.481 C12.442,71.585 12.615,71.689 12.754,71.792 C12.893,71.896 13.066,72.000 13.239,72.174 C13.412,72.347 13.551,72.485 13.655,72.659 C13.759,72.832 13.828,73.005 13.897,73.248 C13.967,73.490 14.001,73.733 14.001,74.010 C14.001,74.911 13.689,75.604 13.031,76.124 C12.373,76.643 11.576,76.851 10.536,76.851 Z" fill="#FFFEF5" fill-rule="evenodd"></path>
<path d="M21.277,76.643 L20.688,74.911 L16.877,74.911 L16.288,76.643 L14.244,76.643 L17.605,67.046 L19.961,67.046 L23.322,76.643 L21.277,76.643 Z M17.466,73.144 L20.099,73.144 L18.783,69.229 L17.466,73.144 Z" fill="#FFFEF5" fill-rule="evenodd"></path>
<path d="M28.450,76.851 C26.995,76.851 25.817,76.366 24.881,75.396 C23.946,74.426 23.460,73.248 23.460,71.862 C23.460,70.441 23.946,69.263 24.881,68.293 C25.817,67.323 27.029,66.872 28.450,66.872 C29.316,66.872 30.113,67.080 30.841,67.496 C31.568,67.912 32.157,68.466 32.573,69.159 L30.944,70.095 C30.702,69.679 30.355,69.332 29.940,69.090 C29.489,68.847 29.004,68.743 28.450,68.743 C27.514,68.743 26.752,69.021 26.198,69.610 C25.643,70.199 25.331,70.961 25.331,71.896 C25.331,72.832 25.609,73.560 26.198,74.149 C26.752,74.738 27.514,75.015 28.450,75.015 C29.004,75.015 29.489,74.911 29.940,74.668 C30.390,74.426 30.702,74.079 30.944,73.664 L32.573,74.599 C32.157,75.292 31.603,75.846 30.875,76.262 C30.148,76.643 29.316,76.851 28.450,76.851 Z" fill="#FFFEF5" fill-rule="evenodd"></path>
<path d="M39.018,76.643 L37.077,73.317 L35.622,73.317 L35.622,76.643 L33.716,76.643 L33.716,67.046 L37.597,67.046 C38.498,67.046 39.225,67.358 39.849,67.981 C40.473,68.605 40.785,69.367 40.785,70.233 C40.785,70.822 40.611,71.377 40.265,71.896 C39.918,72.416 39.468,72.797 38.914,73.040 L41.027,76.643 L39.018,76.643 L39.018,76.643 Z M35.622,68.813 L35.622,71.654 L37.562,71.654 C37.909,71.654 38.221,71.515 38.498,71.238 C38.740,70.961 38.879,70.614 38.879,70.233 C38.879,69.852 38.740,69.506 38.498,69.229 C38.255,68.951 37.943,68.813 37.562,68.813 L35.622,68.813 Z" fill="#FFFEF5" fill-rule="evenodd"></path>
<path d="M50.140,75.396 C49.170,76.366 47.992,76.851 46.606,76.851 C45.220,76.851 44.042,76.366 43.071,75.396 C42.101,74.426 41.616,73.248 41.616,71.862 C41.616,70.476 42.101,69.298 43.071,68.328 C44.042,67.357 45.220,66.872 46.606,66.872 C47.992,66.872 49.170,67.357 50.140,68.328 C51.110,69.298 51.595,70.476 51.595,71.862 C51.560,73.248 51.075,74.426 50.140,75.396 Z M44.388,74.114 C44.977,74.703 45.705,75.015 46.606,75.015 C47.506,75.015 48.234,74.738 48.823,74.114 C49.412,73.525 49.724,72.763 49.724,71.862 C49.724,70.961 49.412,70.199 48.823,69.610 C48.234,69.021 47.506,68.709 46.606,68.709 C45.705,68.709 44.977,69.021 44.388,69.610 C43.799,70.199 43.487,70.961 43.487,71.862 C43.487,72.763 43.799,73.525 44.388,74.114 Z" fill="#FFFEF5" fill-rule="evenodd"></path>
<path d="M55.822,76.851 C54.887,76.851 54.090,76.643 53.431,76.227 C52.773,75.812 52.323,75.223 52.045,74.495 L53.674,73.560 C54.055,74.530 54.783,75.015 55.891,75.015 C56.411,75.015 56.827,74.911 57.069,74.738 C57.312,74.564 57.451,74.287 57.451,74.010 C57.451,73.664 57.312,73.421 57.000,73.213 C56.688,73.040 56.169,72.832 55.372,72.589 C54.956,72.451 54.575,72.347 54.298,72.208 C53.986,72.070 53.709,71.896 53.397,71.689 C53.085,71.481 52.877,71.203 52.704,70.857 C52.565,70.545 52.461,70.129 52.461,69.714 C52.461,68.847 52.773,68.154 53.397,67.635 C54.020,67.115 54.748,66.872 55.614,66.872 C56.376,66.872 57.069,67.046 57.658,67.427 C58.247,67.808 58.698,68.328 59.044,69.021 L57.451,69.956 C57.069,69.125 56.446,68.709 55.614,68.709 C55.233,68.709 54.921,68.813 54.679,68.986 C54.471,69.159 54.332,69.402 54.332,69.679 C54.332,69.991 54.471,70.233 54.713,70.407 C54.956,70.580 55.441,70.788 56.169,71.030 C56.446,71.134 56.688,71.203 56.827,71.238 C56.965,71.273 57.173,71.377 57.451,71.481 C57.728,71.585 57.901,71.689 58.040,71.792 C58.178,71.896 58.351,72.000 58.525,72.174 C58.698,72.347 58.836,72.485 58.940,72.659 C59.044,72.832 59.114,73.005 59.183,73.248 C59.252,73.490 59.287,73.733 59.287,74.010 C59.287,74.911 58.975,75.604 58.317,76.124 C57.658,76.643 56.862,76.851 55.822,76.851 Z" fill="#FFFEF5" fill-rule="evenodd"></path>
</svg>